<svg xmlns="http://www.w3.org/2000/svg" xmlns:xlink="http://www.w3.org/1999/xlink" viewBox="0 0 140.81 134.01"><defs><style>.cls-1{fill:url(#linear-gradient);}</style><linearGradient id="linear-gradient" y1="67.01" x2="140.81" y2="67.01" gradientUnits="userSpaceOnUse"><stop offset="0.04" stop-color="#f2634b"/><stop offset="0.06" stop-color="#f06f4b"/><stop offset="0.12" stop-color="#ed864b"/><stop offset="0.16" stop-color="#ec8e4b"/><stop offset="0.18" stop-color="#eb954a"/><stop offset="0.25" stop-color="#e8b045"/><stop offset="0.33" stop-color="#e6c342"/><stop offset="0.41" stop-color="#e4cf40"/><stop offset="0.49" stop-color="#e4d33f"/><stop offset="0.59" stop-color="#e1d342"/><stop offset="0.67" stop-color="#d8d14b"/><stop offset="0.73" stop-color="#c8cf5a"/><stop offset="0.8" stop-color="#b1cc70"/><stop offset="0.85" stop-color="#94c88c"/><stop offset="0.87" stop-color="#8ac796"/><stop offset="0.92" stop-color="#87c798"/><stop offset="0.95" stop-color="#7ec69d"/><stop offset="0.98" stop-color="#6ec5a6"/><stop offset="0.98" stop-color="#6dc5a7"/></linearGradient></defs><title>Asset 1</title><g id="Layer_2" data-name="Layer 2"><g id="Layer_1-2" data-name="Layer 1"><path class="cls-1" d="M125.87,4.11c0,3.34,0,6.68.1,10a.36.36,0,0,1-.65.21A33.56,33.56,0,0,0,106,1C93.23-2.08,80.24,2,71,11.19c-9.9,9.9-13.38,22.51-13.81,36.16-.19,5.92-.43,8.48,0,23.16.41,14-30,19.41-38.36,5.27-2.82-4.79-3-10.46-2.94-15.87.09-6.09-.23-12.21-.23-18.32,0-2.82.2-30,.45-37.35a1.76,1.76,0,0,0-1.76-1.81H1.76A1.75,1.75,0,0,0,0,4.19V57.86C0,66.6-.18,75.55,3.65,83.67c10.63,22.61,44.77,20.12,59.63,3.79,1-1.06,2.35-3.37,4-1.8a60.52,60.52,0,0,0,8.39,7.06,38.64,38.64,0,0,0,13.63,6c12.76,2.78,27.69-1,35.21-12.22a.27.27,0,0,1,.5.14v45.67a1.75,1.75,0,0,0,1.76,1.75h12.31a1.75,1.75,0,0,0,1.75-1.75V4.11a1.75,1.75,0,0,0-1.75-1.76H127.63A1.76,1.76,0,0,0,125.87,4.11ZM118.73,71a26.81,26.81,0,0,1-3.17,5.88C106.18,89.67,85.72,88,77.24,75.2,65.32,57.26,69.33,14.92,97.17,14.53,121.33,14.19,126.52,51.52,118.73,71Z"/></g></g></svg>